# Blender v2.91.0 OBJ File: ''
# www.blender.org
mtllib House.mtl
o Cube_Cube.001
v -1.000000 -0.134879 1.000000
v -1.000000 0.134879 1.000000
v -1.000000 -0.134879 -1.000000
v -1.000000 0.134879 -1.000000
v 1.000000 -0.134879 1.000000
v 1.000000 0.134879 1.000000
v 1.000000 -0.134879 -1.000000
v 1.000000 0.134879 -1.000000
vt 0.375000 0.000000
vt 0.625000 0.000000
vt 0.625000 0.250000
vt 0.375000 0.250000
vt 0.625000 0.500000
vt 0.375000 0.500000
vt 0.625000 0.750000
vt 0.375000 0.750000
vt 0.625000 1.000000
vt 0.375000 1.000000
vt 0.125000 0.500000
vt 0.125000 0.750000
vt 0.875000 0.500000
vt 0.875000 0.750000
vn -1.0000 0.0000 0.0000
vn 0.0000 0.0000 -1.0000
vn 1.0000 0.0000 0.0000
vn 0.0000 0.0000 1.0000
vn 0.0000 -1.0000 0.0000
vn 0.0000 1.0000 0.0000
usemtl None
s off
f 1/1/1 2/2/1 4/3/1 3/4/1
f 3/4/2 4/3/2 8/5/2 7/6/2
f 7/6/3 8/5/3 6/7/3 5/8/3
f 5/8/4 6/7/4 2/9/4 1/10/4
f 3/11/5 7/6/5 5/8/5 1/12/5
f 8/5/6 4/13/6 2/14/6 6/7/6
o Cube.001_Cube.002
v -1.000000 0.236276 1.000000
v -1.000000 0.988548 1.000000
v -1.000000 0.236276 -1.000000
v -1.000000 0.988548 -1.000000
v 1.000000 0.236276 1.000000
v 1.000000 0.988548 1.000000
v 1.000000 0.236276 -1.000000
v 1.000000 0.988548 -1.000000
vt 0.375000 0.000000
vt 0.625000 0.000000
vt 0.625000 0.250000
vt 0.375000 0.250000
vt 0.625000 0.500000
vt 0.375000 0.500000
vt 0.625000 0.750000
vt 0.375000 0.750000
vt 0.625000 1.000000
vt 0.375000 1.000000
vt 0.125000 0.500000
vt 0.125000 0.750000
vt 0.875000 0.500000
vt 0.875000 0.750000
vn -1.0000 0.0000 0.0000
vn 0.0000 0.0000 -1.0000
vn 1.0000 0.0000 0.0000
vn 0.0000 0.0000 1.0000
vn 0.0000 -1.0000 0.0000
vn 0.0000 1.0000 0.0000
usemtl None
s off
f 9/15/7 10/16/7 12/17/7 11/18/7
f 11/18/8 12/17/8 16/19/8 15/20/8
f 15/20/9 16/19/9 14/21/9 13/22/9
f 13/22/10 14/21/10 10/23/10 9/24/10
f 11/25/11 15/20/11 13/22/11 9/26/11
f 16/19/12 12/27/12 10/28/12 14/21/12
o Cube.002_Cube.003
v -1.000000 1.949485 1.000000
v -1.000000 1.949485 -1.000000
v 1.000000 1.949485 1.000000
v 1.000000 1.949485 -1.000000
v 0.000000 2.891705 0.000000
vt 0.375000 0.000000
vt 0.625000 0.250000
vt 0.375000 0.250000
vt 0.625000 0.500000
vt 0.375000 0.500000
vt 0.625000 0.750000
vt 0.375000 0.750000
vt 0.625000 1.000000
vt 0.375000 1.000000
vt 0.125000 0.500000
vt 0.125000 0.750000
vn -0.6858 0.7278 0.0000
vn 0.0000 0.7278 -0.6858
vn 0.6858 0.7278 0.0000
vn 0.0000 0.7278 0.6858
vn 0.0000 -1.0000 0.0000
usemtl None
s off
f 17/29/13 21/30/13 18/31/13
f 18/31/14 21/32/14 20/33/14
f 20/33/15 21/34/15 19/35/15
f 19/35/16 21/36/16 17/37/16
f 18/38/17 20/33/17 19/35/17 17/39/17
o Cube.003_Cube.004
v -1.000000 1.020893 1.000000
v -1.000000 1.773165 1.000000
v -1.000000 1.020893 -1.000000
v -1.000000 1.773165 -1.000000
v 1.000000 1.020893 1.000000
v 1.000000 1.773165 1.000000
v 1.000000 1.020893 -1.000000
v 1.000000 1.773165 -1.000000
vt 0.375000 0.000000
vt 0.625000 0.000000
vt 0.625000 0.250000
vt 0.375000 0.250000
vt 0.625000 0.500000
vt 0.375000 0.500000
vt 0.625000 0.750000
vt 0.375000 0.750000
vt 0.625000 1.000000
vt 0.375000 1.000000
vt 0.125000 0.500000
vt 0.125000 0.750000
vt 0.875000 0.500000
vt 0.875000 0.750000
vn -1.0000 0.0000 0.0000
vn 0.0000 0.0000 -1.0000
vn 1.0000 0.0000 0.0000
vn 0.0000 0.0000 1.0000
vn 0.0000 -1.0000 0.0000
vn 0.0000 1.0000 0.0000
usemtl None
s off
f 22/40/18 23/41/18 25/42/18 24/43/18
f 24/43/19 25/42/19 29/44/19 28/45/19
f 28/45/20 29/44/20 27/46/20 26/47/20
f 26/47/21 27/46/21 23/48/21 22/49/21
f 24/50/22 28/45/22 26/47/22 22/51/22
f 29/44/23 25/52/23 23/53/23 27/46/23
